# xmcd
#
# Track frame offsets:
#	150
#	13487
#	26512
#	39037
#	52112
#	65687
#	78975
#	92562
#	106100
#	119487
#	132750
#	146262
#	159537
#	173962
#	187512
#	200500
#	214200
#	227087
#	240500
#	253212
#	265462
#	278712
#	290612
#	302562
#	314037
#
# Disc length: 4342 seconds
#
# Revision: 0
# Processed by: cddbd v1.5.2PL0 Copyright (c) Steve Scherf et al.
# Submitted via: dBpowerAMP V4.0
#
DISCID=6710f419
DTITLE=ti-blanc richard - les grands du country
DYEAR=1995
DGENRE=Folklore
TTITLE0=reel du mardi gras
TTITLE1=reel de coaticook
TTITLE2=reel de chicoutimi
TTITLE3=reel des carabins
TTITLE4=reel des quatres coin de st-malo
TTITLE5=reel de l'arc-en-ciel
TTITLE6=reel du saguenay
TTITLE7=reel de rimouski
TTITLE8=reel de l'exposition
TTITLE9=reel de la fleur de lys
TTITLE10=reel de l'oiseau bleu
TTITLE11=valse de l'hirondelle
TTITLE12=reel de la maison blanche
TTITLE13=reel du bec fin
TTITLE14=reel du bonhomme sept heures
TTITLE15=reel des soucoupes volantes
TTITLE16=valse des étincelles
TTITLE17=reel de la biere d'epinette
TTITLE18=reel des canots
TTITLE19=reel du moulin a vent
TTITLE20=reel de bouboule
TTITLE21=valse des fleurs
TTITLE22=reel du survenant
TTITLE23=reel de la georgie
TTITLE24=reel des trois sapins
EXTD=ti-blanc richard,  french canadian violon player
EXTT0=
EXTT1=
EXTT2=
EXTT3=
EXTT4=
EXTT5=
EXTT6=
EXTT7=
EXTT8=
EXTT9=
EXTT10=
EXTT11=
EXTT12=
EXTT13=
EXTT14=
EXTT15=
EXTT16=
EXTT17=
EXTT18=
EXTT19=
EXTT20=
EXTT21=
EXTT22=
EXTT23=
EXTT24=
PLAYORDER=
